<mxfile host="app.diagrams.net" modified="2024-02-23T02:03:57.135Z" agent="Mozilla/5.0 (Macintosh; Intel Mac OS X 10_15_7) AppleWebKit/537.36 (KHTML, like Gecko) Chrome/121.0.0.0 Safari/537.36" version="23.1.6" etag="eY2fpi0M3GFv9ToQ1R6g" type="github">
  <diagram name="第 1 页" id="qCQk8oFNIm8D-xpHVakh">
    <mxGraphModel>
      <root>
        <mxCell id="0" />
        <mxCell id="1" parent="0" />
      </root>
    </mxGraphModel>
  </diagram>
</mxfile>
